<svg width="135" height="23" viewBox="0 0 135 23" fill="none" xmlns="http://www.w3.org/2000/svg">
<path d="M6.32 22.18C5.04 22.18 3.9 22.03 2.9 21.73C1.9 21.43 1.16 21.1 0.68 20.74C0.3 20.46 0.11 20.21 0.11 19.99C0.11 19.83 0.17 19.62 0.29 19.36C0.43 19.1 0.58 18.87 0.74 18.67C0.92 18.47 1.06 18.37 1.16 18.37C1.22 18.37 1.3 18.4 1.4 18.46C1.52 18.5 1.65 18.57 1.79 18.67C2.19 18.89 2.77 19.15 3.53 19.45C4.29 19.75 5.22 19.9 6.32 19.9C7.08 19.9 7.75 19.76 8.33 19.48C8.93 19.18 9.4 18.76 9.74 18.22C10.08 17.68 10.25 17.06 10.25 16.36C10.25 15.56 10.03 14.92 9.59 14.44C9.17 13.94 8.61 13.53 7.91 13.21C7.23 12.89 6.5 12.58 5.72 12.28C5.08 12.04 4.45 11.78 3.83 11.5C3.21 11.2 2.65 10.84 2.15 10.42C1.65 10 1.25 9.47 0.95 8.83C0.65 8.17 0.5 7.35 0.5 6.37C0.5 5.29 0.77 4.33 1.31 3.49C1.87 2.65 2.65 2 3.65 1.54C4.65 1.06 5.82 0.819999 7.16 0.819999C7.58 0.819999 8.05 0.859999 8.57 0.939999C9.11 1.02 9.63 1.14 10.13 1.3C10.65 1.46 11.07 1.65 11.39 1.87C11.79 2.11 11.99 2.37 11.99 2.65C11.99 2.79 11.93 2.99 11.81 3.25C11.69 3.51 11.55 3.74 11.39 3.94C11.25 4.14 11.13 4.24 11.03 4.24C10.95 4.24 10.84 4.21 10.7 4.15C10.58 4.07 10.42 3.98 10.22 3.88C9.9 3.72 9.49 3.55 8.99 3.37C8.49 3.19 7.86 3.1 7.1 3.1C6.36 3.1 5.69 3.23 5.09 3.49C4.51 3.75 4.05 4.13 3.71 4.63C3.39 5.13 3.23 5.75 3.23 6.49C3.23 7.21 3.42 7.78 3.8 8.2C4.18 8.62 4.68 8.97 5.3 9.25C5.92 9.51 6.59 9.78 7.31 10.06C7.97 10.32 8.63 10.61 9.29 10.93C9.97 11.23 10.59 11.61 11.15 12.07C11.71 12.53 12.15 13.11 12.47 13.81C12.81 14.49 12.98 15.34 12.98 16.36C12.98 17.26 12.82 18.07 12.5 18.79C12.2 19.51 11.75 20.12 11.15 20.62C10.57 21.12 9.87 21.51 9.05 21.79C8.25 22.05 7.34 22.18 6.32 22.18ZM23 22.18C20.52 22.18 18.67 21.53 17.45 20.23C16.25 18.93 15.65 16.94 15.65 14.26C15.65 12.48 15.91 10.99 16.43 9.79C16.97 8.59 17.76 7.68 18.8 7.06C19.84 6.44 21.12 6.13 22.64 6.13C24.02 6.13 25.16 6.43 26.06 7.03C26.98 7.63 27.67 8.51 28.13 9.67C28.59 10.83 28.82 12.26 28.82 13.96C28.82 14.08 28.76 14.24 28.64 14.44C28.54 14.62 28.41 14.79 28.25 14.95C28.09 15.11 27.95 15.19 27.83 15.19H18.35C18.47 16.85 18.9 18.07 19.64 18.85C20.38 19.63 21.49 20.02 22.97 20.02C23.85 20.02 24.59 19.92 25.19 19.72C25.81 19.5 26.3 19.29 26.66 19.09C27.02 18.87 27.25 18.76 27.35 18.76C27.49 18.76 27.64 18.86 27.8 19.06C27.96 19.26 28.1 19.48 28.22 19.72C28.34 19.96 28.4 20.14 28.4 20.26C28.4 20.44 28.26 20.64 27.98 20.86C27.7 21.08 27.31 21.29 26.81 21.49C26.33 21.69 25.76 21.86 25.1 22C24.46 22.12 23.76 22.18 23 22.18ZM18.35 13.03H26.15C26.15 11.45 25.85 10.27 25.25 9.49C24.65 8.69 23.75 8.29 22.55 8.29C21.25 8.29 20.25 8.69 19.55 9.49C18.85 10.27 18.45 11.45 18.35 13.03ZM33.9519 22.06C33.1519 22.06 32.7519 21.84 32.7519 21.4V10.87C32.7519 10.05 32.7219 9.37 32.6619 8.83C32.6019 8.29 32.5419 7.88 32.4819 7.6C32.4219 7.3 32.3919 7.13 32.3919 7.09C32.3919 6.95 32.4519 6.84 32.5719 6.76C32.7119 6.66 32.8719 6.59 33.0519 6.55C33.2319 6.49 33.4119 6.45 33.5919 6.43C33.7719 6.41 33.9119 6.4 34.0119 6.4C34.2519 6.4 34.4319 6.51 34.5519 6.73C34.6919 6.95 34.7919 7.22 34.8519 7.54C34.9319 7.84 35.0019 8.12 35.0619 8.38C35.7019 7.68 36.4319 7.13 37.2519 6.73C38.0719 6.33 38.9019 6.13 39.7419 6.13C41.2819 6.13 42.4819 6.56 43.3419 7.42C44.2019 8.28 44.6319 9.47 44.6319 10.99V21.4C44.6319 21.84 44.2319 22.06 43.4319 22.06H43.3119C42.5119 22.06 42.1119 21.84 42.1119 21.4V11.23C42.1119 10.31 41.8419 9.6 41.3019 9.1C40.7819 8.58 40.0319 8.32 39.0519 8.32C38.3719 8.32 37.6919 8.51 37.0119 8.89C36.3519 9.27 35.7719 9.78 35.2719 10.42V21.4C35.2719 21.84 34.8719 22.06 34.0719 22.06H33.9519ZM52.8111 22.27C51.9111 22.27 51.1011 22.16 50.3811 21.94C49.6611 21.72 49.0911 21.46 48.6711 21.16C48.2511 20.86 48.0411 20.6 48.0411 20.38C48.0411 20.26 48.1011 20.08 48.2211 19.84C48.3411 19.6 48.4811 19.38 48.6411 19.18C48.8011 18.98 48.9511 18.88 49.0911 18.88C49.1711 18.88 49.3511 18.98 49.6311 19.18C49.9111 19.38 50.3011 19.58 50.8011 19.78C51.3211 19.98 51.9311 20.08 52.6311 20.08C54.5911 20.08 55.5711 19.34 55.5711 17.86C55.5711 17.06 55.2811 16.48 54.7011 16.12C54.1411 15.74 53.4311 15.41 52.5711 15.13C51.8711 14.89 51.2011 14.61 50.5611 14.29C49.9211 13.95 49.4011 13.48 49.0011 12.88C48.6011 12.28 48.4011 11.47 48.4011 10.45C48.4011 9.61 48.6111 8.86 49.0311 8.2C49.4711 7.54 50.0611 7.03 50.8011 6.67C51.5611 6.29 52.4211 6.1 53.3811 6.1C54.0611 6.1 54.7011 6.16 55.3011 6.28C55.9011 6.4 56.3911 6.56 56.7711 6.76C57.1511 6.96 57.3411 7.17 57.3411 7.39C57.3411 7.55 57.2811 7.76 57.1611 8.02C57.0611 8.28 56.9411 8.51 56.8011 8.71C56.6611 8.91 56.5211 9.01 56.3811 9.01C56.3011 9.01 56.0311 8.88 55.5711 8.62C55.1111 8.36 54.4711 8.23 53.6511 8.23C52.9111 8.23 52.2811 8.41 51.7611 8.77C51.2411 9.11 50.9811 9.6 50.9811 10.24C50.9811 10.8 51.1411 11.25 51.4611 11.59C51.7811 11.91 52.4011 12.22 53.3211 12.52C54.2411 12.82 55.0611 13.18 55.7811 13.6C56.5011 14 57.0711 14.52 57.4911 15.16C57.9111 15.78 58.1211 16.59 58.1211 17.59C58.1211 18.49 57.8811 19.29 57.4011 19.99C56.9411 20.69 56.3111 21.25 55.5111 21.67C54.7111 22.07 53.8111 22.27 52.8111 22.27ZM68.2637 22.18C65.7837 22.18 63.9337 21.53 62.7137 20.23C61.5137 18.93 60.9137 16.94 60.9137 14.26C60.9137 12.48 61.1737 10.99 61.6937 9.79C62.2337 8.59 63.0237 7.68 64.0637 7.06C65.1037 6.44 66.3837 6.13 67.9037 6.13C69.2837 6.13 70.4237 6.43 71.3237 7.03C72.2437 7.63 72.9337 8.51 73.3937 9.67C73.8537 10.83 74.0837 12.26 74.0837 13.96C74.0837 14.08 74.0237 14.24 73.9037 14.44C73.8037 14.62 73.6737 14.79 73.5137 14.95C73.3537 15.11 73.2137 15.19 73.0937 15.19H63.6137C63.7337 16.85 64.1637 18.07 64.9037 18.85C65.6437 19.63 66.7537 20.02 68.2337 20.02C69.1137 20.02 69.8537 19.92 70.4537 19.72C71.0737 19.5 71.5637 19.29 71.9237 19.09C72.2837 18.87 72.5137 18.76 72.6137 18.76C72.7537 18.76 72.9037 18.86 73.0637 19.06C73.2237 19.26 73.3637 19.48 73.4837 19.72C73.6037 19.96 73.6637 20.14 73.6637 20.26C73.6637 20.44 73.5237 20.64 73.2437 20.86C72.9637 21.08 72.5737 21.29 72.0737 21.49C71.5937 21.69 71.0237 21.86 70.3637 22C69.7237 22.12 69.0237 22.18 68.2637 22.18ZM63.6137 13.03H71.4137C71.4137 11.45 71.1137 10.27 70.5137 9.49C69.9137 8.69 69.0137 8.29 67.8137 8.29C66.5137 8.29 65.5137 8.69 64.8137 9.49C64.1137 10.27 63.7137 11.45 63.6137 13.03ZM79.3655 22.06C78.5655 22.06 78.1655 21.84 78.1655 21.4V6.91C78.1655 6.47 78.5655 6.25 79.3655 6.25H79.4855C80.2855 6.25 80.6855 6.47 80.6855 6.91V21.4C80.6855 21.84 80.2855 22.06 79.4855 22.06H79.3655ZM79.4255 4.15C78.9455 4.15 78.6055 4.09 78.4055 3.97C78.2055 3.85 78.1055 3.69 78.1055 3.49V1.69C78.1055 1.49 78.2055 1.33 78.4055 1.21C78.6055 1.09 78.9455 1.03 79.4255 1.03C79.9055 1.03 80.2455 1.09 80.4455 1.21C80.6455 1.31 80.7455 1.47 80.7455 1.69V3.49C80.7455 3.69 80.6455 3.85 80.4455 3.97C80.2455 4.09 79.9055 4.15 79.4255 4.15Z" fill="#241E1E"/>
<path d="M86.855 22C86.055 22 85.655 21.6 85.655 20.8V2.2C85.655 1.4 86.055 0.999999 86.855 0.999999H93.275C95.335 0.999999 97.075 1.41 98.495 2.23C99.935 3.03 101.025 4.21 101.765 5.77C102.505 7.33 102.875 9.24 102.875 11.5C102.875 13.2 102.665 14.7 102.245 16C101.825 17.3 101.205 18.4 100.385 19.3C99.565 20.18 98.555 20.85 97.355 21.31C96.175 21.77 94.815 22 93.275 22H86.855ZM90.305 18.07H93.275C94.355 18.07 95.255 17.82 95.975 17.32C96.695 16.82 97.235 16.08 97.595 15.1C97.955 14.12 98.135 12.92 98.135 11.5C98.135 10.08 97.955 8.88 97.595 7.9C97.235 6.92 96.695 6.18 95.975 5.68C95.255 5.18 94.355 4.93 93.275 4.93H90.305V18.07ZM113.324 22.24C110.604 22.24 108.614 21.52 107.354 20.08C106.114 18.62 105.494 16.68 105.494 14.26C105.494 12.28 105.804 10.69 106.424 9.49C107.044 8.29 107.904 7.42 109.004 6.88C110.104 6.34 111.364 6.07 112.784 6.07C114.364 6.07 115.624 6.43 116.564 7.15C117.504 7.85 118.184 8.79 118.604 9.97C119.044 11.13 119.264 12.41 119.264 13.81C119.264 13.97 119.164 14.2 118.964 14.5C118.764 14.78 118.544 15.03 118.304 15.25C118.064 15.47 117.874 15.58 117.734 15.58H110.084C110.184 16.78 110.534 17.61 111.134 18.07C111.754 18.51 112.554 18.73 113.534 18.73C114.174 18.73 114.734 18.65 115.214 18.49C115.714 18.33 116.124 18.18 116.444 18.04C116.784 17.88 117.024 17.8 117.164 17.8C117.384 17.8 117.614 17.95 117.854 18.25C118.094 18.55 118.294 18.88 118.454 19.24C118.634 19.6 118.724 19.88 118.724 20.08C118.724 20.46 118.524 20.79 118.124 21.07C117.744 21.33 117.254 21.55 116.654 21.73C116.074 21.91 115.474 22.04 114.854 22.12C114.254 22.2 113.744 22.24 113.324 22.24ZM110.084 12.61H114.944C114.944 11.73 114.774 11.01 114.434 10.45C114.094 9.87 113.544 9.58 112.784 9.58C112.164 9.58 111.604 9.8 111.104 10.24C110.604 10.66 110.264 11.45 110.084 12.61ZM126.923 22.06C126.483 22.06 126.113 22.02 125.813 21.94C125.533 21.84 125.343 21.67 125.243 21.43L120.473 7.45C120.453 7.35 120.423 7.26 120.383 7.18C120.363 7.08 120.353 6.99 120.353 6.91C120.353 6.47 120.963 6.25 122.183 6.25H123.173C123.613 6.25 123.983 6.3 124.283 6.4C124.583 6.48 124.773 6.64 124.853 6.88L126.353 11.62C126.633 12.48 126.863 13.33 127.043 14.17C127.243 14.99 127.383 15.72 127.463 16.36H127.583C127.663 15.74 127.793 15.03 127.973 14.23C128.153 13.41 128.393 12.54 128.693 11.62L130.193 6.88C130.273 6.64 130.463 6.48 130.763 6.4C131.063 6.3 131.433 6.25 131.873 6.25H132.623C133.823 6.25 134.423 6.47 134.423 6.91C134.423 7.05 134.393 7.23 134.333 7.45L129.563 21.43C129.483 21.67 129.293 21.84 128.993 21.94C128.693 22.02 128.323 22.06 127.883 22.06H126.923Z" fill="#3F3E77"/>
</svg>
