<svg width="216" height="35" viewBox="0 0 216 35" fill="none" xmlns="http://www.w3.org/2000/svg">
<path d="M10.712 34.288C8.664 34.288 6.84 34.048 5.24 33.568C3.64 33.088 2.456 32.56 1.688 31.984C1.08 31.536 0.776 31.136 0.776 30.784C0.776 30.528 0.872 30.192 1.064 29.776C1.288 29.36 1.528 28.992 1.784 28.672C2.072 28.352 2.296 28.192 2.456 28.192C2.552 28.192 2.68 28.24 2.84 28.336C3.032 28.4 3.24 28.512 3.464 28.672C4.104 29.024 5.032 29.44 6.248 29.92C7.464 30.4 8.952 30.64 10.712 30.64C11.928 30.64 13 30.416 13.928 29.968C14.888 29.488 15.64 28.816 16.184 27.952C16.728 27.088 17 26.096 17 24.976C17 23.696 16.648 22.672 15.944 21.904C15.272 21.104 14.376 20.448 13.256 19.936C12.168 19.424 11 18.928 9.752 18.448C8.728 18.064 7.72 17.648 6.728 17.2C5.736 16.72 4.84 16.144 4.04 15.472C3.24 14.8 2.6 13.952 2.12 12.928C1.64 11.872 1.4 10.56 1.4 8.992C1.4 7.264 1.832 5.728 2.696 4.384C3.592 3.04 4.84 2 6.44 1.264C8.04 0.495998 9.912 0.111999 12.056 0.111999C12.728 0.111999 13.48 0.175999 14.312 0.303999C15.176 0.431999 16.008 0.623999 16.808 0.879997C17.64 1.136 18.312 1.44 18.824 1.792C19.464 2.176 19.784 2.592 19.784 3.04C19.784 3.264 19.688 3.584 19.496 4C19.304 4.416 19.08 4.784 18.824 5.104C18.6 5.424 18.408 5.584 18.248 5.584C18.12 5.584 17.944 5.536 17.72 5.44C17.528 5.312 17.272 5.168 16.952 5.008C16.44 4.752 15.784 4.48 14.984 4.192C14.184 3.904 13.176 3.76 11.96 3.76C10.776 3.76 9.704 3.968 8.744 4.384C7.816 4.8 7.08 5.408 6.536 6.208C6.024 7.008 5.768 8 5.768 9.184C5.768 10.336 6.072 11.248 6.68 11.92C7.288 12.592 8.088 13.152 9.08 13.6C10.072 14.016 11.144 14.448 12.296 14.896C13.352 15.312 14.408 15.776 15.464 16.288C16.552 16.768 17.544 17.376 18.44 18.112C19.336 18.848 20.04 19.776 20.552 20.896C21.096 21.984 21.368 23.344 21.368 24.976C21.368 26.416 21.112 27.712 20.6 28.864C20.12 30.016 19.4 30.992 18.44 31.792C17.512 32.592 16.392 33.216 15.08 33.664C13.8 34.08 12.344 34.288 10.712 34.288ZM37.4 34.288C33.432 34.288 30.472 33.248 28.52 31.168C26.6 29.088 25.64 25.904 25.64 21.616C25.64 18.768 26.056 16.384 26.888 14.464C27.752 12.544 29.016 11.088 30.68 10.096C32.344 9.104 34.392 8.608 36.824 8.608C39.032 8.608 40.856 9.088 42.296 10.048C43.768 11.008 44.872 12.416 45.608 14.272C46.344 16.128 46.712 18.416 46.712 21.136C46.712 21.328 46.616 21.584 46.424 21.904C46.264 22.192 46.056 22.464 45.8 22.72C45.544 22.976 45.32 23.104 45.128 23.104H29.96C30.152 25.76 30.84 27.712 32.024 28.96C33.208 30.208 34.984 30.832 37.352 30.832C38.76 30.832 39.944 30.672 40.904 30.352C41.896 30 42.68 29.664 43.256 29.344C43.832 28.992 44.2 28.816 44.36 28.816C44.584 28.816 44.824 28.976 45.08 29.296C45.336 29.616 45.56 29.968 45.752 30.352C45.944 30.736 46.04 31.024 46.04 31.216C46.04 31.504 45.816 31.824 45.368 32.176C44.92 32.528 44.296 32.864 43.496 33.184C42.728 33.504 41.816 33.776 40.76 34C39.736 34.192 38.616 34.288 37.4 34.288ZM29.96 19.648H42.44C42.44 17.12 41.96 15.232 41 13.984C40.04 12.704 38.6 12.064 36.68 12.064C34.6 12.064 33 12.704 31.88 13.984C30.76 15.232 30.12 17.12 29.96 19.648ZM54.923 34.096C53.643 34.096 53.003 33.744 53.003 33.04V16.192C53.003 14.88 52.955 13.792 52.859 12.928C52.763 12.064 52.667 11.408 52.571 10.96C52.475 10.48 52.427 10.208 52.427 10.144C52.427 9.92 52.523 9.744 52.715 9.616C52.939 9.456 53.195 9.344 53.483 9.28C53.771 9.184 54.059 9.12 54.347 9.088C54.635 9.056 54.859 9.04 55.019 9.04C55.403 9.04 55.691 9.216 55.883 9.568C56.107 9.92 56.267 10.352 56.363 10.864C56.491 11.344 56.603 11.792 56.699 12.208C57.723 11.088 58.891 10.208 60.203 9.568C61.515 8.928 62.843 8.608 64.187 8.608C66.651 8.608 68.571 9.296 69.947 10.672C71.323 12.048 72.011 13.952 72.011 16.384V33.04C72.011 33.744 71.371 34.096 70.091 34.096H69.899C68.619 34.096 67.979 33.744 67.979 33.04V16.768C67.979 15.296 67.547 14.16 66.683 13.36C65.851 12.528 64.651 12.112 63.083 12.112C61.995 12.112 60.907 12.416 59.819 13.024C58.763 13.632 57.835 14.448 57.035 15.472V33.04C57.035 33.744 56.395 34.096 55.115 34.096H54.923ZM85.0978 34.432C83.6578 34.432 82.3618 34.256 81.2098 33.904C80.0578 33.552 79.1458 33.136 78.4738 32.656C77.8018 32.176 77.4658 31.76 77.4658 31.408C77.4658 31.216 77.5618 30.928 77.7538 30.544C77.9458 30.16 78.1698 29.808 78.4258 29.488C78.6818 29.168 78.9218 29.008 79.1458 29.008C79.2738 29.008 79.5618 29.168 80.0098 29.488C80.4578 29.808 81.0818 30.128 81.8818 30.448C82.7138 30.768 83.6898 30.928 84.8098 30.928C87.9458 30.928 89.5138 29.744 89.5138 27.376C89.5138 26.096 89.0498 25.168 88.1218 24.592C87.2258 23.984 86.0898 23.456 84.7138 23.008C83.5938 22.624 82.5218 22.176 81.4978 21.664C80.4738 21.12 79.6418 20.368 79.0018 19.408C78.3618 18.448 78.0418 17.152 78.0418 15.52C78.0418 14.176 78.3778 12.976 79.0498 11.92C79.7538 10.864 80.6978 10.048 81.8818 9.472C83.0978 8.864 84.4738 8.56 86.0098 8.56C87.0978 8.56 88.1218 8.656 89.0818 8.848C90.0418 9.04 90.8258 9.296 91.4338 9.616C92.0418 9.936 92.3458 10.272 92.3458 10.624C92.3458 10.88 92.2498 11.216 92.0578 11.632C91.8978 12.048 91.7058 12.416 91.4818 12.736C91.2578 13.056 91.0338 13.216 90.8098 13.216C90.6818 13.216 90.2498 13.008 89.5138 12.592C88.7778 12.176 87.7538 11.968 86.4418 11.968C85.2578 11.968 84.2498 12.256 83.4178 12.832C82.5858 13.376 82.1698 14.16 82.1698 15.184C82.1698 16.08 82.4258 16.8 82.9378 17.344C83.4498 17.856 84.4418 18.352 85.9138 18.832C87.3858 19.312 88.6978 19.888 89.8498 20.56C91.0018 21.2 91.9138 22.032 92.5858 23.056C93.2578 24.048 93.5938 25.344 93.5938 26.944C93.5938 28.384 93.2098 29.664 92.4418 30.784C91.7058 31.904 90.6978 32.8 89.4178 33.472C88.1378 34.112 86.6978 34.432 85.0978 34.432ZM109.822 34.288C105.854 34.288 102.894 33.248 100.942 31.168C99.0219 29.088 98.0619 25.904 98.0619 21.616C98.0619 18.768 98.4779 16.384 99.3099 14.464C100.174 12.544 101.438 11.088 103.102 10.096C104.766 9.104 106.814 8.608 109.246 8.608C111.454 8.608 113.278 9.088 114.718 10.048C116.19 11.008 117.294 12.416 118.03 14.272C118.766 16.128 119.134 18.416 119.134 21.136C119.134 21.328 119.038 21.584 118.846 21.904C118.686 22.192 118.478 22.464 118.222 22.72C117.966 22.976 117.742 23.104 117.55 23.104H102.382C102.574 25.76 103.262 27.712 104.446 28.96C105.63 30.208 107.406 30.832 109.774 30.832C111.182 30.832 112.366 30.672 113.326 30.352C114.318 30 115.102 29.664 115.678 29.344C116.254 28.992 116.622 28.816 116.782 28.816C117.006 28.816 117.246 28.976 117.502 29.296C117.758 29.616 117.982 29.968 118.174 30.352C118.366 30.736 118.462 31.024 118.462 31.216C118.462 31.504 118.238 31.824 117.79 32.176C117.342 32.528 116.718 32.864 115.918 33.184C115.15 33.504 114.238 33.776 113.182 34C112.158 34.192 111.038 34.288 109.822 34.288ZM102.382 19.648H114.862C114.862 17.12 114.382 15.232 113.422 13.984C112.462 12.704 111.022 12.064 109.102 12.064C107.022 12.064 105.422 12.704 104.302 13.984C103.182 15.232 102.542 17.12 102.382 19.648ZM127.585 34.096C126.305 34.096 125.665 33.744 125.665 33.04V9.856C125.665 9.152 126.305 8.8 127.585 8.8H127.777C129.057 8.8 129.697 9.152 129.697 9.856V33.04C129.697 33.744 129.057 34.096 127.777 34.096H127.585ZM127.681 5.44C126.913 5.44 126.369 5.344 126.049 5.152C125.729 4.96 125.569 4.704 125.569 4.384V1.504C125.569 1.184 125.729 0.927999 126.049 0.735999C126.369 0.543998 126.913 0.447997 127.681 0.447997C128.449 0.447997 128.993 0.543998 129.313 0.735999C129.633 0.895999 129.793 1.152 129.793 1.504V4.384C129.793 4.704 129.633 4.96 129.313 5.152C128.993 5.344 128.449 5.44 127.681 5.44ZM139.568 34C138.288 34 137.648 33.36 137.648 32.08V2.32C137.648 1.04 138.288 0.399998 139.568 0.399998H149.84C153.136 0.399998 155.92 1.056 158.192 2.368C160.496 3.648 162.24 5.536 163.424 8.032C164.608 10.528 165.2 13.584 165.2 17.2C165.2 19.92 164.864 22.32 164.192 24.4C163.52 26.48 162.528 28.24 161.216 29.68C159.904 31.088 158.288 32.16 156.368 32.896C154.48 33.632 152.304 34 149.84 34H139.568ZM145.088 27.712H149.84C151.568 27.712 153.008 27.312 154.16 26.512C155.312 25.712 156.176 24.528 156.752 22.96C157.328 21.392 157.616 19.472 157.616 17.2C157.616 14.928 157.328 13.008 156.752 11.44C156.176 9.872 155.312 8.688 154.16 7.888C153.008 7.088 151.568 6.688 149.84 6.688H145.088V27.712ZM181.919 34.384C177.567 34.384 174.383 33.232 172.367 30.928C170.383 28.592 169.391 25.488 169.391 21.616C169.391 18.448 169.887 15.904 170.879 13.984C171.871 12.064 173.247 10.672 175.007 9.808C176.767 8.944 178.783 8.512 181.055 8.512C183.583 8.512 185.599 9.088 187.103 10.24C188.607 11.36 189.695 12.864 190.367 14.752C191.071 16.608 191.423 18.656 191.423 20.896C191.423 21.152 191.263 21.52 190.943 22C190.623 22.448 190.271 22.848 189.887 23.2C189.503 23.552 189.199 23.728 188.975 23.728H176.735C176.895 25.648 177.455 26.976 178.415 27.712C179.407 28.416 180.687 28.768 182.255 28.768C183.279 28.768 184.175 28.64 184.943 28.384C185.743 28.128 186.399 27.888 186.911 27.664C187.455 27.408 187.839 27.28 188.063 27.28C188.415 27.28 188.783 27.52 189.167 28C189.551 28.48 189.871 29.008 190.127 29.584C190.415 30.16 190.559 30.608 190.559 30.928C190.559 31.536 190.239 32.064 189.599 32.512C188.991 32.928 188.207 33.28 187.247 33.568C186.319 33.856 185.359 34.064 184.367 34.192C183.407 34.32 182.591 34.384 181.919 34.384ZM176.735 18.976H184.511C184.511 17.568 184.239 16.416 183.695 15.52C183.151 14.592 182.271 14.128 181.055 14.128C180.063 14.128 179.167 14.48 178.367 15.184C177.567 15.856 177.023 17.12 176.735 18.976ZM203.677 34.096C202.973 34.096 202.381 34.032 201.901 33.904C201.453 33.744 201.149 33.472 200.989 33.088L193.357 10.72C193.325 10.56 193.277 10.416 193.213 10.288C193.181 10.128 193.165 9.984 193.165 9.856C193.165 9.152 194.141 8.8 196.093 8.8H197.677C198.381 8.8 198.973 8.88 199.453 9.04C199.933 9.168 200.237 9.424 200.365 9.808L202.765 17.392C203.213 18.768 203.581 20.128 203.869 21.472C204.189 22.784 204.413 23.952 204.541 24.976H204.733C204.861 23.984 205.069 22.848 205.357 21.568C205.645 20.256 206.029 18.864 206.509 17.392L208.909 9.808C209.037 9.424 209.341 9.168 209.821 9.04C210.301 8.88 210.893 8.8 211.597 8.8H212.797C214.717 8.8 215.677 9.152 215.677 9.856C215.677 10.08 215.629 10.368 215.533 10.72L207.901 33.088C207.773 33.472 207.469 33.744 206.989 33.904C206.509 34.032 205.917 34.096 205.213 34.096H203.677Z" fill="white"/>
</svg>
